<svg version="1.1" id="Layer_1" x="0px" y="0px" viewBox="0 0 1306.8 995.9" style="enable-background:new 0 0 1700.79 1190.55;" xmlns="http://www.w3.org/2000/svg">
    <defs></defs>
    <g transform="matrix(1, 0, 0, 1, -64.520021, -68.909967)">
      <g style="" transform="matrix(1, 0, 0, 1, -0.000097, 0.000037)">
        <g>
          <polygon points="65.67,815.8 65.2,813.73 125.28,800.15 234.96,732.23 318.55,642.53 379.49,550.28 383.93,545.49 401.44,521.46 
                      426.44,512.12 416.36,455.66 420.85,408.99 424.18,398.66 421.48,375.4 416.74,308.71 408.29,300.88 401.9,302.63 399.73,308.51 
                      397.73,317.52 398.07,352.56 393.29,379.89 390.54,403.58 380.18,418.44 339.58,478.46 335.69,482.71 322.22,488.92 
                      283.03,511.08 274.22,513.45 266,518.93 250.5,521.34 237.62,524.73 168.16,536.65 143.5,544.87 101.74,540.08 65.34,537.02 
                      65.52,534.9 101.95,537.96 143.28,542.7 167.72,534.57 237.17,522.65 250.12,519.25 265.21,516.9 273.33,511.49 282.22,509.09 
                      321.25,487.03 334.41,480.95 337.96,477.08 378.42,417.23 388.49,402.8 391.19,379.58 395.94,352.38 395.6,317.29 397.71,307.85 
                      400.28,300.86 408.87,298.52 418.8,307.72 418.83,308.14 423.6,375.2 426.34,398.87 422.9,409.54 418.5,455.57 428.85,513.49 
                      402.78,523.22 385.53,546.89 381.17,551.59 320.23,643.85 320.17,643.92 236.33,733.89 236.21,733.97 126.1,802.15 
                      125.92,802.19 			"></polygon>
        </g>
        <g>
          <polygon points="138.68,509.45 65.35,503.66 65.52,501.54 138.57,507.31 199.02,495.76 253.97,484.91 319.26,443.3 327.3,428.22 
                      343.57,397.38 353.04,352.4 351.69,334.16 343.87,271.58 336.72,217.46 336.04,208.31 320.03,150.42 316.3,127.28 313.9,96.21 
                      313.56,79.67 315.63,70.99 317.7,71.48 315.69,79.9 316.03,96.11 318.41,127.02 322.12,150.03 338.15,208.05 338.83,217.24 
                      345.98,271.31 353.81,333.95 355.18,352.54 355.15,352.69 345.59,398.11 329.18,429.22 320.88,444.79 254.77,486.92 
                      254.57,486.96 199.43,497.85 			"></polygon>
        </g>
        <g>
          <polygon points="698.92,601.29 691.09,598.22 660.07,584.59 633.87,572 594.77,557.72 547.47,540.7 515.13,529.47 505.73,526.12 
                      488.56,525.09 466.67,509.79 461.44,500.39 450.43,482.85 449.05,464.21 446.33,442.37 445.65,416.5 444.63,405.67 443.6,392.65 
                      443.61,392.57 444.97,370.11 447.01,348.67 447.01,336.62 441.94,319.41 437.51,302.35 431.38,275.77 425.96,249.7 
                      417.19,234.18 403.21,206.56 394,186.79 379.4,160.99 366.05,140.45 363.29,126.98 356.83,101.15 354.05,87.98 356.81,71.06 
                      358.91,71.4 356.22,87.93 358.9,100.67 365.36,126.51 368.05,139.63 381.22,159.89 395.89,185.82 405.12,205.64 419.06,233.18 
                      427.97,248.94 428,249.1 433.45,275.32 439.58,301.85 443.99,318.84 449.13,336.47 449.13,348.82 447.09,370.27 445.73,392.63 
                      446.75,405.49 447.77,416.37 448.45,442.26 451.17,464 452.52,482.17 463.27,499.31 468.28,508.33 489.29,523 506.3,524.06 
                      515.83,527.47 548.18,538.7 595.5,555.72 634.74,570.06 660.96,582.66 691.9,596.26 699.69,599.31 			"></polygon>
        </g>
        <g>
          <polygon points="66.21,841.68 65.75,839.6 106.67,830.42 153.13,814.49 181.61,795.5 201.38,783.22 216.32,773.04 225.1,765.94 
                      252.64,741.12 285.3,710.5 300.99,696.86 324.35,675.19 333.81,659.99 357,628.27 373.32,604.46 384.59,589.78 398.46,573.53 
                      412.42,537.1 418.47,530.33 437.02,520.89 442.8,522.04 453.58,532.47 488.24,561.35 519.7,588.32 517.54,599.81 515.05,611.69 
                      499.39,640.97 483.42,671.21 478.89,682.36 474.53,685.27 473.35,683.5 477.17,680.96 481.51,670.27 497.51,639.97 513.1,610.83 
                      515.46,599.4 517.38,589.13 486.87,562.98 452.16,534.05 441.77,524 437.33,523.11 419.79,532.05 414.27,538.22 400.32,574.64 
                      400.2,574.78 386.24,591.12 375.04,605.71 358.73,629.5 335.57,661.18 325.9,676.65 302.41,698.44 286.73,712.08 254.07,742.69 
                      226.48,767.56 217.59,774.74 202.54,785.01 182.76,797.29 154.08,816.41 107.2,832.48 			"></polygon>
        </g>
        <g>
          <polygon points="499.34,687.69 497.56,686.53 521.05,650.44 533.92,629.11 543.14,604.89 551.86,589.19 564.82,585.34 
                      578,579.79 597.85,583.63 626.91,593.21 667.76,612.61 696.24,624.48 709.31,627.92 718.54,634.85 717.26,636.55 708.37,629.87 
                      695.49,626.47 666.9,614.56 626.06,595.16 597.25,585.67 578.23,582 565.48,587.36 553.3,590.98 545.04,605.85 535.79,630.12 
                      522.85,651.57 			"></polygon>
        </g>
        <g>
          <polygon points="1369.94,478.9 1351.89,463.58 1329.83,445.59 1303.67,428.94 1282.5,413.24 1264.86,402.05 1240.03,387.08 
                      1185.27,357.83 1160.05,343.17 1139.24,329.87 1082.05,292.76 1049.39,272.69 980.86,229.05 957.71,210.66 920.4,184.55 
                      915.05,182.21 882,166.54 843.23,150.21 784.97,121.76 765.5,113.98 761.92,106.28 760.38,90.59 756.05,70.74 758.13,70.28 
                      762.49,90.32 764,105.72 767.07,112.32 785.83,119.82 844.11,148.28 882.87,164.6 915.93,180.27 921.53,182.75 958.98,208.96 
                      982.13,227.35 1050.51,270.89 1083.18,290.97 1140.39,328.09 1161.15,341.36 1186.31,355.97 1241.08,385.23 1265.98,400.24 
                      1283.7,411.49 1304.88,427.19 1331.13,443.9 1353.25,461.94 1371.31,477.27 			"></polygon>
        </g>
        <g>
          <polygon points="1369.65,432.64 1342.08,412.26 1309.11,390.81 1296.17,382.29 1269.33,364.97 1249.3,355.12 1206.02,330.93 
                      1169.57,309.47 1097.7,262.12 1057.46,236.94 1033.72,221.96 1006.46,203.91 981.25,186.19 956.77,170.21 942.49,160.01 
                      915.99,145.74 885.43,132.51 840.47,111.39 816.22,97.39 798.46,87.29 794.61,70.49 796.68,70.02 800.32,85.9 817.28,95.54 
                      841.45,109.5 886.31,130.57 916.92,143.83 943.67,158.24 957.97,168.45 982.44,184.43 1007.66,202.15 1034.87,220.18 
                      1058.59,235.14 1098.85,260.33 1170.7,307.67 1207.08,329.08 1250.29,353.24 1270.43,363.15 1297.33,380.51 1310.27,389.03 
                      1343.29,410.51 1370.92,430.93 			"></polygon>
        </g>
        <g>
          <path d="M616.9,316.36l-113.55-40.7l-1.59-5.97l0.12-0.32l40.63-110.62l3.81-2.54l43.17,16.24c24.81,12.41,40.96-4.81,41.63-5.55
                      l0.12-0.11l28.6-23.15l37.44-30.97l30.91-24.46L744.1,68.9l1.64,1.35l-16.16,19.56l-30.98,24.51l-37.43,30.96l-28.55,23.11
                      c-1.18,1.24-18.57,18.68-44.04,5.98l-41.99-15.79l-2.32,1.55L503.99,269.8l1.13,4.24l112.5,40.32L616.9,316.36z"></path>
        </g>
        <g>
          <path d="M649.23,226c-0.04-0.21-3.29-21.56,15.78-31.02l57.39-49.24c1.35-1.38,33.87-34.04,74.24-20.62l-0.67,2.02
                      c-39.77-13.22-71.75,19.78-72.07,20.11l-0.08,0.07l-57.63,49.45l-0.12,0.06c-17.77,8.73-14.87,28.02-14.74,28.83L649.23,226z"></path>
        </g>
        <g>
          <polygon points="720.96,338.82 675.69,321.31 670.84,332.04 623.49,313.42 651.27,236.36 681.99,248.39 686.83,237.68 
                      763.34,266.24 760.55,273.1 777.13,278.71 775.19,283.59 773.21,282.8 774.33,280.01 757.72,274.39 760.55,267.46 687.95,240.36 
                      683.09,251.1 652.53,239.13 626.19,312.2 669.73,329.32 674.58,318.6 721.73,336.84 			"></polygon>
        </g>
        <g>
          <polygon points="824.45,304.03 822.5,303.2 824.13,299.32 804.27,290.68 802.44,293.93 800.59,292.88 803.36,287.96 
                      826.91,298.21 			"></polygon>
        </g>
        <g>
          <path d="M798.07,378.01l-80.9-30.37l28.59-75.02l79.07,31.16L798.07,378.01z M719.91,346.4l76.88,28.86l25.33-70.27l-75.15-29.61
                      L719.91,346.4z"></path>
        </g>
        <g>
          <polygon points="829.23,378.24 800.43,368.37 801.12,366.36 827.93,375.55 847.41,320.55 822.56,310.22 823.37,308.25 
                      850.09,319.36 			"></polygon>
        </g>
        <g>
          <polygon points="736.15,300.67 708.2,288.43 708.04,288.05 686.93,240.73 688.87,239.86 709.81,286.81 737,298.73 			"></polygon>
        </g>
        <g>
          <polygon points="704.85,295.74 681.51,251 683.4,250.02 704.99,291.41 707.42,287.41 709.24,288.51 			"></polygon>
        </g>
        <g>
          <polygon points="703.67,295.75 671.11,282.48 651.36,239.04 653.29,238.16 672.69,280.83 704.47,293.78 			"></polygon>
        </g>
        <g>
          <rect x="770.75" y="269.06" transform="matrix(0.8971 -0.4418 0.4418 0.8971 -64.3189 374.4211)" width="2.13" height="112.51"></rect>
        </g>
        <g>
          <rect x="819.69" y="333.31" transform="matrix(0.9415 -0.3371 0.3371 0.9415 -71.7214 297.4263)" width="2.13" height="43.93"></rect>
        </g>
        <g>
          <rect x="811.07" y="327.68" transform="matrix(0.9179 -0.3969 0.3969 0.9179 -62.2619 356.6467)" width="38.9" height="2.13"></rect>
        </g>
        <g>
          <rect x="715.47" y="324.68" transform="matrix(0.929 -0.3701 0.3701 0.929 -65.832 308.3911)" width="110.47" height="2.13"></rect>
        </g>
        <g>
          <rect x="706.67" y="276.38" transform="matrix(0.9361 -0.3518 0.3518 0.9361 -50.6451 276.1998)" width="55.91" height="2.13"></rect>
        </g>
        <g>
          <rect x="621.03" y="296.04" transform="matrix(0.8276 -0.5613 0.5613 0.8276 -55.0088 415.0841)" width="54.6" height="2.13"></rect>
        </g>
        <g>
          <rect x="661.37" y="291.93" transform="matrix(0.9174 -0.3979 0.3979 0.9174 -69.1838 289.2668)" width="2.13" height="38.82"></rect>
        </g>
        <g>
          <rect x="672.16" y="282.21" transform="matrix(0.9954 -0.0961 0.0961 0.9954 -25.7913 66.087)" width="2.13" height="37.19"></rect>
        </g>
        <g>
          <path d="M854.67,645.84l-69.15-14.92l6.7-34.6l68.97,14.74L854.67,645.84z M788,629.28l64.98,14.02l5.74-30.59l-64.82-13.86
                      L788,629.28z"></path>
        </g>
        <g>
          <polygon points="916.54,682.95 853.25,668 854.94,660.02 849.55,658.84 851.75,644.74 853.85,645.07 851.96,657.19 
                      857.46,658.39 855.76,666.41 915.02,680.4 919.1,665.29 980.47,677.36 988.23,637.91 860.08,612.25 860.5,610.16 990.73,636.24 
                      982.15,679.86 920.63,667.76 			"></polygon>
        </g>
        <g>
          <g>
            <path d="M1194.66,708.51h-21.44l-14.17-16.61l0.5-22.17l15.93-11.8l23.19-0.34l11.9,14.97v22.1L1194.66,708.51z M1174.2,706.38
                          h19.67l14.57-12.7V673.3l-10.78-13.57l-21.46,0.32l-14.54,10.77l-0.46,20.32L1174.2,706.38z"></path>
          </g>
          <g>
            <polygon points="1188.72,684.06 1161.12,672.36 1161.95,670.4 1184.45,679.94 1174.87,659.44 1176.79,658.54 				"></polygon>
          </g>
          <g>
            <polygon points="1175.25,706.82 1173.35,705.86 1184.4,683.97 1161.92,692.51 1161.16,690.52 1188.76,680.03 				"></polygon>
          </g>
          <g>
            <polygon points="1193.38,706.04 1184.31,680.78 1208.76,692.1 1207.87,694.03 1188.03,684.84 1195.38,705.32 				"></polygon>
          </g>
          <g>
            <polygon points="1184.46,683.95 1196.49,658.97 1198.41,659.89 1188.7,680.05 1208.17,672.6 1208.93,674.58 				"></polygon>
          </g>
        </g>
        <g>
          <path d="M985.64,352.3l-65.25-32.1l10.69-23.88l65.22,30.38L985.64,352.3z M923.16,319.2l61.38,30.2l9-21.63l-61.42-28.6
                      L923.16,319.2z"></path>
        </g>
        <g>
          <polygon points="922.89,320.49 922.44,318.41 938.73,314.87 930.78,298.73 932.68,297.79 941.84,316.37 			"></polygon>
        </g>
        <g>
          <polygon points="983.73,350.76 975.05,330.83 993.53,326.58 994.01,328.65 978.02,332.32 985.68,349.92 			"></polygon>
        </g>
        <g>
          <rect x="957.03" y="304.66" transform="matrix(0.411 -0.9116 0.9116 0.411 268.984 1064.1788)" width="2.13" height="38.51"></rect>
        </g>
        <g>
          <path d="M658.73,496.23l-157.52-63.37l0.5-1.03l45.11-92.55l152.3,61.28L658.73,496.23z M504.12,431.74l153.46,61.74l38.75-91.74
                      l-148.46-59.74L504.12,431.74z"></path>
        </g>
        <g>
          <g>
            <path d="M736.84,563.4l-50.75-24.18l0.58-0.1l-0.4-0.23l21.26-37.05l47.44,25.67L736.84,563.4z M693.01,540.17l42.87,20.42
                          l15.49-30.68L693.01,540.17z M708.34,504.7l-19.54,34.05l62.24-10.94L708.34,504.7z"></path>
          </g>
          <g>
            <rect x="721" y="501.46" transform="matrix(0.8992 -0.4375 0.4375 0.8992 -160.3985 369.5769)" width="2.13" height="63.03"></rect>
          </g>
          <g>
            <polygon points="714.47,569.96 692.22,558.59 700.73,545.67 702.5,546.83 695.3,557.78 713.53,567.09 719.88,554.45 
                          721.78,555.41 				"></polygon>
          </g>
        </g>
        <g>
          <path d="M562.13,931.88l-0.97-0.39L278.23,818.73l37.01-75.77L597.35,848.2L562.13,931.88z M281.15,817.61l279.84,111.53
                      l33.55-79.72L316.3,745.63L281.15,817.61z"></path>
        </g>
        <g transform="matrix(1, 0, 0, 1, -4, 0)">
          <polygon points="1172.86 860.07 1137.79 835.02 1158.72 807.12 1128.13 785.79 1129.35 784.05 1161.74 806.63 1140.79 834.56 1172.45 857.17 1224.43 791.4 1193.79 767.53 1176.97 789.78 1144.3 766.9 1145.52 765.15 1176.51 786.86 1193.39 764.52 1227.43 791.04"></polygon>
        </g>
        <g>
          <path d="M913.26,767.35h-2.13c0-14.41-16.78-26.13-37.42-26.13c-20.63,0-37.42,11.72-37.42,26.13h-2.13
                      c0-15.58,17.74-28.26,39.54-28.26S913.26,751.76,913.26,767.35z"></path>
        </g>
        <g>
          <path d="M935.69,861.65H804.86l6.15-2.07c0.06-0.02,7.87-3.36,7.87-30.14c0-17.73,5.02-34.14,14.13-46.2
                      c10-13.23,24-20.23,40.51-20.23c37.13,0,54.04,34.43,54.04,66.42c0,26.95,8.37,30.11,8.45,30.14l6.09,2.07L935.69,861.65z
                       M814.32,859.52h118.21c-2.94-3.18-7.09-11.05-7.09-30.08c0-30.97-16.25-64.3-51.92-64.3c-36.08,0-52.51,33.33-52.51,64.3
                      C821.01,848.46,817.08,856.34,814.32,859.52z"></path>
        </g>
        <g>
          <rect x="770.86" y="812.53" transform="matrix(0.293 -0.9561 0.9561 0.293 -197.7515 1359.7565)" width="99.38" height="2.13"></rect>
        </g>
        <g>
          <rect x="925.98" y="763.8" transform="matrix(0.9535 -0.3013 0.3013 0.9535 -202.0754 317.1057)" width="2.13" height="99.79"></rect>
        </g>
        <g>
          <path d="M268,1010.3l-0.03-5.67l8.5-0.05l0.03,5.67L268,1010.3z M279.34,1010.23l-0.03-5.67l2.83-0.02l0.03,5.67L279.34,1010.23z
                       M285.01,1010.2l-0.03-5.67l12-0.07l0.03,5.67L285.01,1010.2z M299.84,1010.11l-0.03-5.67l8.5-0.05l0.03,5.67L299.84,1010.11z
                       M311.18,1010.05l-0.03-5.67l2.83-0.02l0.03,5.67L311.18,1010.05z M316.85,1010.02l-0.03-5.67l12-0.07l0.03,5.67L316.85,1010.02z
                       M331.68,1009.94l-0.03-5.67l8.5-0.04l0.03,5.67L331.68,1009.94z M343.02,1009.89l-0.02-5.67l2.83-0.01l0.02,5.67L343.02,1009.89
                      z M348.69,1009.87l-0.03-5.67l12-0.05l0.03,5.67L348.69,1009.87z M363.52,1009.8l-0.03-5.67l8.5-0.04l0.03,5.67L363.52,1009.8z
                       M374.86,1009.75l-0.02-5.67l2.83-0.01l0.02,5.67L374.86,1009.75z M380.53,1009.73l-0.03-5.67l12-0.05l0.03,5.67L380.53,1009.73z
                       M395.36,1009.67l-0.03-5.67l8.5-0.04l0.03,5.67L395.36,1009.67z M406.7,1009.62l-0.03-5.67l2.83-0.01l0.03,5.67L406.7,1009.62z
                       M412.37,1009.59l-0.02-5.67l12-0.05l0.03,5.67L412.37,1009.59z M427.21,1009.53l-0.03-5.67l8.5-0.04l0.03,5.67L427.21,1009.53z
                       M438.54,1009.48l-0.03-5.67l1.24,0l0.9-0.22l1.33,5.51l-1.55,0.37L438.54,1009.48z M264.05,1009l-10.55-5.71l2.7-4.99
                      l10.55,5.71L264.05,1009z M444.75,1008.43l-1.33-5.51l11.66-2.82l1.33,5.51L444.75,1008.43z M459.17,1004.94l-1.33-5.51l8.27-2
                      l1.33,5.51L459.17,1004.94z M470.19,1002.28l-1.33-5.51l2.75-0.67l1.33,5.51L470.19,1002.28z M251,1001.94l-2.49-1.35l2.7-4.98
                      l2.49,1.35L251,1001.94z M475.7,1000.95l-1.33-5.51l11.66-2.82l1.33,5.51L475.7,1000.95z M246.02,999.24l-7.48-4.05l2.7-4.99
                      l7.48,4.05L246.02,999.24z M490.12,997.46l-1.33-5.51l8.27-2l1.33,5.51L490.12,997.46z M501.14,994.8l-1.33-5.51l2.76-0.67
                      l1.33,5.51L501.14,994.8z M236.05,993.84l-10.55-5.71l2.7-4.99l10.55,5.71L236.05,993.84z M506.65,993.46l-1.33-5.51l11.66-2.82
                      l1.33,5.51L506.65,993.46z M521.07,989.98l-1.33-5.51l8.27-2l1.33,5.51L521.07,989.98z M532.09,987.31l-1.33-5.51l2.75-0.67
                      l1.33,5.51L532.09,987.31z M223,986.77l-2.49-1.35l2.7-4.98l2.49,1.35L223,986.77z M537.6,985.98l-1.33-5.51l11.66-2.82
                      l1.33,5.51L537.6,985.98z M218.02,984.07l-7.48-4.05l2.7-4.98l7.48,4.05L218.02,984.07z M552.02,982.49l-1.33-5.51l8.27-2
                      l1.33,5.51L552.02,982.49z M563,979.84l-1.24-5.53l2.77-0.62l1.24,5.53L563,979.84z M208.05,978.67l-10.55-5.71l2.7-4.98
                      l10.55,5.71L208.05,978.67z M568.53,978.6l-1.24-5.53l11.71-2.63l1.24,5.53L568.53,978.6z M583,975.35l-1.24-5.53l8.3-1.87
                      l1.24,5.53L583,975.35z M594.06,972.86l-1.25-5.53l2.77-0.62l1.25,5.53L594.06,972.86z M599.59,971.61l-1.24-5.53l11.71-2.63
                      l1.24,5.53L599.59,971.61z M195,971.61l-2.49-1.35l2.7-4.99l2.49,1.35L195,971.61z M190.02,968.91l-7.48-4l2.66-5l7.52,4.02
                      L190.02,968.91z M614.07,968.36l-1.24-5.53l8.3-1.87l1.24,5.53L614.07,968.36z M981.19,967.49l-5.64-0.71l0.7-5.62l3.96,0.49
                      l5.67-2.79l2.5,5.09L981.19,967.49z M972.74,966.43l-2.81-0.35l0.71-5.62l2.81,0.35L972.74,966.43z M625.13,965.87l-1.24-5.53
                      l2.77-0.62l1.24,5.53L625.13,965.87z M967.11,965.73l-8.44-1.05l0.7-5.62l8.44,1.05L967.11,965.73z M630.66,964.62l-1.24-5.53
                      l11.71-2.63l1.24,5.53L630.66,964.62z M955.86,964.32l-11.91-1.49l0.7-5.62l11.91,1.49L955.86,964.32z M180.03,963.58
                      l-10.59-5.64l2.67-5l10.59,5.64L180.03,963.58z M990.92,962.71l-2.5-5.09l7.63-3.75l2.5,5.09L990.92,962.71z M941.14,962.48
                      l-2.81-0.35l0.7-5.62l2.81,0.35L941.14,962.48z M935.52,961.78l-8.44-1.05l0.7-5.62l8.44,1.05L935.52,961.78z M645.13,961.37
                      l-1.24-5.53l8.3-1.87l1.24,5.53L645.13,961.37z M924.27,960.38l-11.88-1.45l0.63-5.63l2.63,0.3l9.31,1.16L924.27,960.38z
                       M656.19,958.88l-1.24-5.53l2.77-0.62l1.24,5.53L656.19,958.88z M909.57,958.61l-2.82-0.32l0.63-5.63l2.82,0.32L909.57,958.61z
                       M903.94,957.97l-8.45-0.95l0.63-5.63l8.45,0.95L903.94,957.97z M1001.1,957.7l-2.5-5.09l2.54-1.25l2.5,5.09L1001.1,957.7z
                       M661.72,957.64l-1.24-5.53l11.71-2.63l1.24,5.53L661.72,957.64z M892.67,956.71l-11.92-1.34l0.63-5.63l11.92,1.34L892.67,956.71
                      z M166.94,956.6l-2.5-1.33l2.66-5l2.5,1.33L166.94,956.6z M1006.18,955.2l-2.5-5.09l10.77-5.3l2.5,5.09L1006.18,955.2z
                       M877.93,955.05l-2.82-0.32l0.63-5.63l2.82,0.32L877.93,955.05z M872.3,954.42l-8.45-0.95l0.63-5.63l8.45,0.95L872.3,954.42z
                       M676.2,954.38l-1.24-5.53l8.3-1.87l1.24,5.53L676.2,954.38z M161.94,953.94l-5.87-3.12l-1.9-2.28l4.36-3.63l1.19,1.43l4.89,2.6
                      L161.94,953.94z M861.03,953.15l-11.92-1.34l0.63-5.63l11.92,1.34L861.03,953.15z M687.26,951.89l-1.24-5.53l2.77-0.62l1.24,5.53
                      L687.26,951.89z M846.29,951.49l-2.82-0.32l0.63-5.63l2.82,0.32L846.29,951.49z M840.66,950.86l-8.45-0.95l0.63-5.63l8.45,0.95
                      L840.66,950.86z M692.79,950.65l-1.24-5.53l11.71-2.63l1.24,5.53L692.79,950.65z M829.39,949.59l-11.93-1.37l0.65-5.63
                      l11.91,1.37L829.39,949.59z M1019.5,948.65l-2.5-5.09l7.63-3.75l2.5,5.09L1019.5,948.65z M814.64,947.9l-2.82-0.33l0.65-5.63
                      l2.82,0.33L814.64,947.9z M707.26,947.39l-1.24-5.53l8.3-1.87l1.24,5.53L707.26,947.39z M809.01,947.25l-8.45-0.98l0.65-5.63
                      l8.45,0.98L809.01,947.25z M152.36,946.36l-7.68-9.22l4.36-3.63l7.68,9.22L152.36,946.36z M797.75,945.95l-11.92-1.38l0.65-5.63
                      l11.92,1.38L797.75,945.95z M718.32,944.9l-1.24-5.53l2.77-0.62l1.24,5.53L718.32,944.9z M783.01,944.24l-2.82-0.33l0.65-5.63
                      l2.82,0.33L783.01,944.24z M723.86,943.66l-1.24-5.53l11.71-2.63l1.24,5.53L723.86,943.66z M1029.67,943.65l-2.5-5.09l2.54-1.25
                      l2.5,5.09L1029.67,943.65z M777.38,943.59l-8.45-0.98l0.65-5.63l8.45,0.98L777.38,943.59z M766.12,942.29l-11.92-1.38l0.65-5.63
                      l11.92,1.38L766.12,942.29z M1034.76,941.14l-2.5-5.09l10.77-5.3l2.5,5.09L1034.76,941.14z M751.38,940.59l-2.82-0.33l0.65-5.63
                      l2.82,0.32L751.38,940.59z M738.33,940.4l-1.24-5.53l4.83-1.09l4.49,0.52l-0.65,5.63l-3.53-0.41L738.33,940.4z M142.86,934.96
                      l-1.81-2.18l4.36-3.63l1.81,2.18L142.86,934.96z M1048.07,934.6l-2.5-5.09l7.63-3.75l2.5,5.09L1048.07,934.6z M139.23,930.61
                      l-5.44-6.53l4.36-3.63l5.44,6.53L139.23,930.61z M1058.24,929.59l-2.5-5.09l2.54-1.25l2.5,5.09L1058.24,929.59z M1063.33,927.09
                      l-2.5-5.09l10.77-5.3l2.5,5.09L1063.33,927.09z M131.97,921.9l-3.49-4.19l-4.15-5.11l4.4-3.58l4.13,5.08l3.47,4.16L131.97,921.9z
                       M1076.64,920.54l-2.5-5.09l7.63-3.75l2.5,5.09L1076.64,920.54z M1086.81,915.54l-2.5-5.09l2.54-1.25l2.5,5.09L1086.81,915.54z
                       M1091.9,913.03l-2.5-5.09l10.77-5.3l2.5,5.09L1091.9,913.03z M122.54,910.4l-1.79-2.2l4.4-3.58l1.79,2.2L122.54,910.4z
                       M1105.21,906.49l-2.5-5.09l2.7-1.33l5-2.38l2.44,5.12L1105.21,906.49z M118.96,906l-5.37-6.6l4.4-3.58l5.37,6.6L118.96,906z
                       M1115.4,901.6l-2.44-5.12l2.56-1.22l2.44,5.12L1115.4,901.6z M1120.52,899.16l-2.44-5.12l10.83-5.16l2.44,5.12L1120.52,899.16z
                       M111.81,897.21l-7.57-9.31l4.4-3.58l7.57,9.31L111.81,897.21z M1133.91,892.79l-2.44-5.12l7.68-3.65l2.44,5.12L1133.91,892.79z
                       M1144.15,887.91l-2.44-5.12l2.56-1.22l2.44,5.12L1144.15,887.91z M1149.27,885.48l-2.44-5.12l10.83-5.16l2.44,5.12
                      L1149.27,885.48z M102.4,884.38l-0.72-2.74l5.49-1.43l0.72,2.74L102.4,884.38z M1162.67,879.1l-2.44-5.12l7.68-3.65l2.44,5.12
                      L1162.67,879.1z M100.97,878.89l-2.15-8.23l5.48-1.43l2.15,8.23L100.97,878.89z M1172.9,874.23l-2.44-5.12l2.56-1.22l2.44,5.12
                      L1172.9,874.23z M1178.02,871.8l-2.44-5.12l10.83-5.16l2.44,5.12L1178.02,871.8z M98.1,867.92l-3.03-11.61l5.49-1.43l3.03,11.61
                      L98.1,867.92z M1191.42,865.42l-2.44-5.12l7.68-3.65l2.44,5.12L1191.42,865.42z M1201.97,858.8l-4.53-3.41l1.71-2.26l4.53,3.41
                      L1201.97,858.8z M1205.38,854.27l-4.53-3.41l7.23-9.58l4.53,3.41L1205.38,854.27z M94.35,853.57l-0.72-2.74l5.49-1.43l0.72,2.74
                      L94.35,853.57z M92.92,848.08l-2.32-8.87l3.95-12.21l5.39,1.74l-3.44,10.63l1.9,7.27L92.92,848.08z M1214.32,842.43l-4.53-3.42
                      l5.12-6.79l4.53,3.42L1214.32,842.43z M1221.15,833.38l-4.53-3.41l1.71-2.26l4.53,3.41L1221.15,833.38z M1224.56,828.86
                      l-4.53-3.41l7.23-9.58l4.53,3.41L1224.56,828.86z M100.81,826.05l-5.39-1.74l0.87-2.7l5.39,1.74L100.81,826.05z M102.56,820.66
                      l-5.39-1.74l2.62-8.09l5.39,1.74L102.56,820.66z M1233.5,817.02l-4.53-3.42l5.12-6.79l4.53,3.42L1233.5,817.02z M106.04,809.87
                      l-5.39-1.74l3.69-11.42l5.39,1.74L106.04,809.87z M1240.33,807.96l-4.53-3.41l1.71-2.26l4.53,3.41L1240.33,807.96z
                       M1243.74,803.51l-4.46-3.5l7.41-9.44l4.46,3.5L1243.74,803.51z M110.6,795.75l-5.39-1.74l0.87-2.7l5.39,1.74L110.6,795.75z
                       M1252.9,791.84l-4.46-3.5l5.25-6.69l4.46,3.5L1252.9,791.84z M112.35,790.36l-5.39-1.74l2.62-8.09l5.39,1.74L112.35,790.36z
                       M1259.9,782.92l-4.46-3.5l1.75-2.23l4.46,3.5L1259.9,782.92z M109.25,779.52l-3.51-11.47l5.42-1.66l3.51,11.47L109.25,779.52z
                       M1263.4,778.46l-4.46-3.5l7.41-9.44l4.46,3.5L1263.4,778.46z M1272.56,766.79l-4.46-3.5l5.25-6.69l4.46,3.5L1272.56,766.79z
                       M104.91,765.33l-0.83-2.71l5.42-1.66l0.83,2.71L104.91,765.33z M103.25,759.91l-2.48-8.13l5.42-1.66l2.48,8.13L103.25,759.91z
                       M1279.56,757.87l-4.46-3.5l1.71-2.2l4.52,3.43L1279.56,757.87z M1283.04,753.34l-4.52-3.43l7.26-9.56l4.52,3.43L1283.04,753.34z
                       M99.94,749.07l-3.51-11.48l5.42-1.66l3.51,11.48L99.94,749.07z M1292.01,741.52l-4.52-3.43l5.14-6.77l4.52,3.43L1292.01,741.52z
                       M95.61,734.88l-0.83-2.71l5.42-1.66l0.83,2.71L95.61,734.88z M1298.87,732.49l-4.52-3.43l1.71-2.26l4.52,3.43L1298.87,732.49z
                       M93.95,729.46l-1.45-4.76l4.59-4.98l4.17,3.84l-2.39,2.59l0.5,1.65L93.95,729.46z M1302.29,727.98l-4.52-3.43l6.01-7.92
                      l0.09-0.6l0.33,0.05l0.02-0.03l0.06,0.04l5.2,0.78l-0.3,2.03L1302.29,727.98z M103.18,721.47l-4.17-3.84l8.13-8.82l4.17,3.84
                      L103.18,721.47z M1309.91,714.07l-5.61-0.84l1.25-8.41l5.61,0.84L1309.91,714.07z M113.24,710.57l-4.17-3.84l1.92-2.08l4.17,3.84
                      L113.24,710.57z M117.08,706.4l-4.17-3.84l5.77-6.25l4.17,3.84L117.08,706.4z M1311.58,702.85l-5.61-0.84l0.42-2.8l5.61,0.84
                      L1311.58,702.85z M124.77,698.07l-4.17-3.84l8.13-8.82l4.17,3.84L124.77,698.07z M1312.42,697.24l-5.61-0.84l1.77-11.87
                      l5.61,0.84L1312.42,697.24z M134.82,687.16l-4.17-3.84l1.92-2.08l4.17,3.84L134.82,687.16z M138.67,683l-4.17-3.84l5.77-6.25
                      l4.17,3.84L138.67,683z M1314.61,682.57l-5.61-0.84l1.29-8.52l5.57,1.07l-0.07,0.38L1314.61,682.57z M146.35,674.66l-4.17-3.84
                      l8.13-8.82l4.17,3.84L146.35,674.66z M1316.39,671.5l-5.57-1.07l0.54-2.78l5.57,1.07L1316.39,671.5z M1317.47,665.93l-5.57-1.07
                      l2.27-11.78l5.57,1.07L1317.47,665.93z M156.41,663.76l-4.17-3.84l1.92-2.08l4.17,3.84L156.41,663.76z M160.25,659.59l-4.17-3.84
                      l1.34-1.46l6.17-3.87l3.01,4.8l-5.52,3.47L160.25,659.59z M169.01,653.71l-3.01-4.8l10.16-6.38l3.01,4.8L169.01,653.71z
                       M1320.27,651.37l-5.57-1.07l1.6-8.3l5.58,0.97l-0.01,0.05L1320.27,651.37z M181.57,645.83l-3.01-4.8l2.4-1.51l3.01,4.8
                      L181.57,645.83z M186.37,642.82l-3.01-4.8l7.2-4.52l3.01,4.8L186.37,642.82z M1322.39,640.2l-5.58-1.01l0.51-2.79l5.58,1.01
                      L1322.39,640.2z M195.98,636.79l-3.01-4.8l3.59-2.25l5.11-5.01l3.97,4.05l-5.54,5.44L195.98,636.79z M1323.4,634.62l-5.58-1.01
                      l2.15-11.8l5.58,1.01L1323.4,634.62z M207.65,626.79l-3.97-4.04l2.02-1.99l3.97,4.04L207.65,626.79z M211.7,622.82l-3.97-4.05
                      l6.07-5.96l3.97,4.05L211.7,622.82z M1326.06,620.03l-5.58-1.01l1.52-8.37l5.58,1.01L1326.06,620.03z M219.79,614.88l-3.97-4.05
                      l8.57-8.4l3.97,4.05L219.79,614.88z M1328.09,608.87l-5.58-1.01l0.51-2.79l5.58,1.01L1328.09,608.87z M230.38,604.49l-3.97-4.05
                      l2.02-1.99l3.97,4.05L230.38,604.49z M1329.1,603.29l-5.58-1.01l2.15-11.81l5.58,1.01L1329.1,603.29z M234.43,600.52l-3.97-4.05
                      l6.07-5.96l3.97,4.05L234.43,600.52z M242.55,592.2l-4.38-3.61l7.63-9.26l4.38,3.61L242.55,592.2z M1331.77,588.74l-5.56-1.09
                      l1.63-8.35l5.56,1.09L1331.77,588.74z M251.98,580.75l-4.38-3.61l1.8-2.19l4.38,3.61L251.98,580.75z M1333.95,577.61l-5.56-1.09
                      l0.54-2.78l5.56,1.09L1333.95,577.61z M255.59,576.38l-4.38-3.61l5.41-6.56l4.38,3.61L255.59,576.38z M1335.03,572.05l-5.56-1.09
                      l2.3-11.78l5.56,1.09L1335.03,572.05z M262.8,567.63l-4.38-3.61l7.63-9.26l4.38,3.61L262.8,567.63z M1337.88,557.49l-5.56-1.09
                      l1.63-8.35l5.56,1.09L1337.88,557.49z M272.23,556.18l-4.37-3.61l1.8-2.19l4.38,3.61L272.23,556.18z M275.84,551.81l-4.38-3.61
                      l5.41-6.56l4.38,3.61L275.84,551.81z M1334.28,545.86l-0.05-2.83l5.67-0.11l0.05,2.83L1334.28,545.86z M283.05,543.06l-4.38-3.61
                      l4.66-5.65l2.32-3.65l4.79,3.04l-2.62,4.08L283.05,543.06z M1334.17,540.19l-0.22-11.65l2.38-0.04l1.93-2.45l1.33,1.05
                      l0.25,12.99L1334.17,540.19z M291.96,530.8l-4.79-3.04l1.52-2.39l4.79,3.04L291.96,530.8z M1332.53,528.74l-6.68-5.27l3.51-4.45
                      l6.68,5.27L1332.53,528.74z M295,526.01l-4.79-3.04l4.56-7.18l4.79,3.04L295,526.01z M1323.63,521.71l-2.22-1.76l3.51-4.45
                      l2.22,1.76L1323.63,521.71z M1319.18,518.2l-9.42-7.43l3.51-4.45l9.42,7.43L1319.18,518.2z M301.08,516.44l-4.79-3.04l6.43-10.13
                      l4.79,3.04L301.08,516.44z M1307.54,509.01l-6.67-5.27l3.51-4.45l6.67,5.27L1307.54,509.01z M309.04,503.92l-4.79-3.04l1.73-2.72
                      l0.78-0.48l1.77,2.88l1.88,1.19L309.04,503.92z M1298.64,501.99l-2.23-1.76l3.51-4.45l2.23,1.76L1298.64,501.99z M312.15,501.02
                      l-2.97-4.83l7.24-4.46l2.97,4.83L312.15,501.02z M1294.19,498.47l-9.42-7.43l3.51-4.45l9.42,7.43L1294.19,498.47z M321.8,495.07
                      l-2.97-4.83l10.21-6.3l2.97,4.83L321.8,495.07z M1282.54,489.28l-6.67-5.27l3.51-4.45l6.68,5.27L1282.54,489.28z M334.43,487.29
                      l-2.97-4.83l2.41-1.49l2.97,4.83L334.43,487.29z M339.99,483.24l-4.79-3.03l4.55-7.19l4.79,3.03L339.99,483.24z M1273.64,482.26
                      l-2.22-1.76l3.51-4.45l2.22,1.76L1273.64,482.26z M1269.19,478.74l-9.42-7.43l3.51-4.45l9.42,7.43L1269.19,478.74z
                       M346.05,473.66l-4.79-3.03l6.41-10.14l4.79,3.03L346.05,473.66z M1257.55,469.55l-6.68-5.27l3.51-4.45l6.68,5.27L1257.55,469.55
                      z M1248.65,462.53l-2.22-1.76l3.51-4.45l2.22,1.76L1248.65,462.53z M353.98,461.12l-4.79-3.03l1.52-2.4l4.79,3.03L353.98,461.12z
                       M1244.2,459.02l-9.42-7.43l3.51-4.45l9.42,7.43L1244.2,459.02z M357.01,456.33l-4.79-3.03l4.55-7.19l4.79,3.03L357.01,456.33z
                       M1232.56,449.83l-6.68-5.27l3.51-4.45l6.67,5.27L1232.56,449.83z M363.07,446.74l-4.79-3.03l6.41-10.14l4.79,3.03L363.07,446.74
                      z M1223.66,442.8l-2.23-1.76l3.51-4.45l2.23,1.76L1223.66,442.8z M1219.21,439.29l-9.42-7.43l3.51-4.45l9.42,7.43L1219.21,439.29
                      z M371,434.21l-4.79-3.03l1.52-2.4l4.79,3.03L371,434.21z M1207.56,430.1l-6.66-5.26l3.51-4.45l0.01,0.01l6.65,5.25
                      L1207.56,430.1z M374.03,429.42l-4.79-3.03l4.55-7.19l4.79,3.03L374.03,429.42z M1198.66,423.08l-2.23-1.75l3.5-4.46l2.23,1.75
                      L1198.66,423.08z M380.03,420.08l-4.53-3.42l7.23-9.58l4.53,3.42L380.03,420.08z M1194.2,419.59l-9.44-7.4l3.5-4.46l9.44,7.4
                      L1194.2,419.59z M1182.53,410.43l-6.69-5.25l3.5-4.46l6.69,5.25L1182.53,410.43z M388.96,408.23l-4.53-3.41l1.71-2.26l4.53,3.41
                      L388.96,408.23z M392.38,403.71l-3.71-2.8l-0.73-0.09l0.05-0.42l-0.13-0.1l0.17-0.23l0.84-6.65l5.62,0.71l-1.03,8.15
                      L392.38,403.71z M1173.61,403.44l-2.23-1.75l3.5-4.46l2.23,1.75L1173.61,403.44z M1169.15,399.94l-9.44-7.4l3.5-4.46l9.44,7.4
                      L1169.15,399.94z M394.84,391.31l-5.62-0.71l1.5-11.9l5.62,0.71L394.84,391.31z M1157.47,390.79l-6.69-5.25l3.5-4.46l6.69,5.25
                      L1157.47,390.79z M1148.55,383.79l-2.23-1.75l3.5-4.46l2.23,1.75L1148.55,383.79z M1144.09,380.29l-9.44-7.4l3.5-4.46l9.44,7.4
                      L1144.09,380.29z M396.7,376.59l-5.62-0.71l0.35-2.81l5.62,0.71L396.7,376.59z M1132.42,371.14l-6.69-5.25l3.5-4.46l6.69,5.25
                      L1132.42,371.14z M397.4,370.97l-5.62-0.71l1.06-8.44l5.62,0.71L397.4,370.97z M1123.99,364.49l-2.55-1.24l2.48-5.1l2.55,1.24
                      L1123.99,364.49z M1118.89,362.02l-10.79-5.24l2.48-5.1l10.79,5.24L1118.89,362.02z M398.82,359.72l-5.62-0.71l0.84-6.7v-4.89
                      h5.67l-0.02,5.42L398.82,359.72z M1105.54,355.54l-7.65-3.72l2.48-5.1l7.65,3.72L1105.54,355.54z M1095.34,350.58l-2.55-1.24
                      l2.48-5.1l2.55,1.24L1095.34,350.58z M1090.24,348.1l-10.79-5.24l2.48-5.1l10.79,5.24L1090.24,348.1z M399.71,344.58h-5.67v-2.83
                      h5.67V344.58z M1076.9,341.62l-7.65-3.71l2.48-5.1l7.65,3.71L1076.9,341.62z M399.71,338.91h-5.67v-8.5h5.67V338.91z
                       M1066.7,336.67l-2.55-1.24l2.48-5.1l2.55,1.24L1066.7,336.67z M1061.6,334.19l-10.79-5.24l2.48-5.1l10.79,5.24L1061.6,334.19z
                       M1048.26,327.71l-7.65-3.71l2.48-5.1l7.65,3.71L1048.26,327.71z M399.71,327.58h-5.67v-12h5.67V327.58z M1038.06,322.76
                      l-2.55-1.24l2.48-5.1l2.55,1.24L1038.06,322.76z M1032.96,320.28l-10.79-5.24l2.48-5.1l10.79,5.24L1032.96,320.28z
                       M399.55,313.98l-5.13-2.42l1.21-2.56l5.13,2.42L399.55,313.98z M1019.61,313.8l-7.65-3.71l2.48-5.1l7.65,3.71L1019.61,313.8z
                       M1009.42,308.85l-2.55-1.24l2.48-5.1l2.55,1.24L1009.42,308.85z M401.97,308.85l-5.13-2.42l3.45-7.3l0.91-0.97l4.13,3.89
                      l-0.29,0.31L401.97,308.85z M1004.32,306.37l-10.79-5.24l2.48-5.1l10.79,5.24L1004.32,306.37z M407.27,299.98l-4.13-3.89
                      l8.22-8.74l4.13,3.89L407.27,299.98z M990.97,299.89l-7.65-3.71l2.48-5.1l7.65,3.71L990.97,299.89z M980.77,294.94l-2.55-1.24
                      l2.48-5.1l2.55,1.24L980.77,294.94z M975.67,292.46l-10.79-5.21l2.45-5.11l10.82,5.22L975.67,292.46z M417.43,289.18l-4.13-3.89
                      l1.94-2.06l4.13,3.89L417.43,289.18z M962.32,286.03l-7.67-3.67l2.45-5.11l7.67,3.67L962.32,286.03z M421.32,285.05l-4.13-3.89
                      l5.83-6.19l4.13,3.89L421.32,285.05z M952.1,281.14l-2.56-1.22l2.45-5.11l2.56,1.22L952.1,281.14z M946.98,278.69l-10.82-5.18
                      l2.45-5.11l10.82,5.18L946.98,278.69z M429.09,276.8l-4.13-3.89l8.22-8.74l4.13,3.89L429.09,276.8z M933.61,272.28l-7.67-3.67
                      l2.45-5.11l7.67,3.67L933.61,272.28z M923.38,267.38l-2.56-1.22l2.45-5.11l2.56,1.22L923.38,267.38z M918.26,264.94l-10.82-5.18
                      l2.45-5.11l10.82,5.18L918.26,264.94z M438.91,264.42l-5.35-1.89l0.94-2.67l5.35,1.89L438.91,264.42z M440.8,259.07l-5.35-1.89
                      l2.83-8.02l5.35,1.89L440.8,259.07z M904.88,258.53l-7.67-3.67l2.45-5.11l7.67,3.67L904.88,258.53z M894.66,253.63l-2.56-1.22
                      l2.45-5.11l2.56,1.22L894.66,253.63z M889.55,251.18L878.72,246l2.45-5.11l10.82,5.18L889.55,251.18z M444.58,248.38l-5.35-1.89
                      l4-11.31l5.35,1.89L444.58,248.38z M876.17,244.78l-7.67-3.67l2.45-5.11l7.67,3.67L876.17,244.78z M865.94,239.88l-2.56-1.22
                      l2.45-5.11l2.56,1.22L865.94,239.88z M860.83,237.43L850,232.25l2.45-5.11l10.82,5.18L860.83,237.43z M449.52,234.39l-5.35-1.89
                      l0.94-2.67l5.35,1.89L449.52,234.39z M847.45,231.03l-7.7-3.71l2.52-5.08l1.48,0.73l6.15,2.94L847.45,231.03z M451.41,229.05
                      l-5.35-1.89l2.83-8.02l5.35,1.89L451.41,229.05z M837.21,226.05l-2.54-1.26l2.52-5.08l2.54,1.26L837.21,226.05z M832.13,223.53
                      l-10.75-5.34l2.52-5.08l10.75,5.34L832.13,223.53z M455.18,218.35l-5.35-1.89l1.52-4.3l1.89-6.98l5.47,1.48l-1.98,7.29
                      L455.18,218.35z M818.85,216.94l-7.62-3.78l2.52-5.08l7.62,3.78L818.85,216.94z M808.69,211.9l-2.54-1.26l2.52-5.08l2.54,1.26
                      L808.69,211.9z M803.61,209.38l-10.75-5.34l2.52-5.08l10.75,5.34L803.61,209.38z M459.46,203.94l-5.47-1.48l0.74-2.74l5.47,1.48
                      L459.46,203.94z M790.33,202.78l-7.62-3.78l2.52-5.08l7.62,3.78L790.33,202.78z M460.94,198.46l-5.47-1.48l2.22-8.21l5.47,1.48
                      L460.94,198.46z M780.17,197.74l-2.54-1.26l2.52-5.08l2.54,1.26L780.17,197.74z M775.09,195.22l-10.75-5.34l2.52-5.08l10.75,5.34
                      L775.09,195.22z M761.81,188.62l-7.62-3.78l2.52-5.08l7.62,3.78L761.81,188.62z M463.9,187.52l-5.47-1.48l3.14-11.58l5.47,1.48
                      L463.9,187.52z M751.65,183.58l-2.54-1.26l2.52-5.08l2.54,1.26L751.65,183.58z M746.57,181.06l-0.82-0.41l-9.74-5.64l2.84-4.91
                      l10.25,5.88L746.57,181.06z M733.55,173.58l-7.36-4.26l2.84-4.91l7.36,4.26L733.55,173.58z M467.78,173.2l-5.47-1.48l0.74-2.74
                      l5.47,1.48L467.78,173.2z M723.74,167.9l-2.45-1.42l2.84-4.91l2.45,1.42L723.74,167.9z M469.3,167.84l-5.42-1.67l2.53-8.21
                      l2.57-0.94l1.31,3.61l1.12,0.34L469.3,167.84z M718.83,165.06l-2.1-1.22l-8.48-1.82l1.19-5.54l9.36,2.01l2.88,1.67L718.83,165.06
                      z M705.48,161.43l-4.49-0.96l-4.12-1.93l2.41-5.13l3.54,1.66l3.86,0.83L705.48,161.43z M473.58,161.39l-1.94-5.33l11.28-4.1
                      l1.94,5.33L473.58,161.39z M694.29,157.33l-2.57-1.2l2.41-5.13l2.57,1.2L694.29,157.33z M487.52,156.32l-1.94-5.33l2.66-0.97
                      l1.94,5.33L487.52,156.32z M689.16,154.93l-10.87-5.09l2.41-5.13l10.87,5.09L689.16,154.93z M492.85,154.38l-1.94-5.33l7.99-2.91
                      l1.94,5.33L492.85,154.38z M503.5,150.51l-1.94-5.33l11.28-4.1l1.94,5.33L503.5,150.51z M675.73,148.63l-7.7-3.61l2.41-5.13
                      l7.7,3.61L675.73,148.63z M653.89,145.62l-5.22-0.12l0.13-5.67l5.09,0.12l6.77-0.15l0.12,5.67L653.89,145.62z M517.45,145.44
                      l-1.94-5.33l2.66-0.97l1.94,5.33L517.45,145.44z M645.84,145.43l-6.97-0.17l-2.53-1.33l2.64-5.01l1.35,0.71l5.64,0.13
                      L645.84,145.43z M663.63,145.4l-0.12-5.67l2.83-0.06l0.12,5.67L663.63,145.4z M522.77,143.5l-1.94-5.33l7.99-2.91l1.94,5.33
                      L522.77,143.5z M633.82,142.61l-2.51-1.32l2.64-5.01l2.51,1.32L633.82,142.61z M628.81,139.96l-10.61-5.6l2.64-5.01l10.61,5.6
                      L628.81,139.96z M533.43,139.63l-1.94-5.33l11-4v0l0.13-0.05l0.47,1.29l1.87,3.86l-0.41,0.18L533.43,139.63z M547.52,134.16
                      l-2.48-5.1l2.55-1.24l2.48,5.1L547.52,134.16z M615.69,133.04l-7.52-3.97l2.64-5.01l7.52,3.97L615.69,133.04z M552.62,131.68
                      l-2.48-5.1l7.65-3.72l2.48,5.1L552.62,131.68z M605.85,128.04l-2.63-1.06l2.12-5.26l2.63,1.06L605.85,128.04z M562.82,126.72
                      l-2.48-5.1l10.79-5.25l2.48,5.1L562.82,126.72z M600.59,125.93l-11.13-4.48l2.12-5.26l11.13,4.48L600.59,125.93z M586.82,120.39
                      l-7.18-2.89l0.67-1.67l-1.54-3.17l1.82-0.88l8.35,3.36L586.82,120.39z M576.16,120.23l-2.48-5.1l2.55-1.24l2.48,5.1
                      L576.16,120.23z"></path>
        </g>
      </g>
    </g>
  </svg>